<svg xmlns="http://www.w3.org/2000/svg" width="251px" height="63px" viewBox="0 0 222.42 55.82"><title>le-ventures-horizontal</title><path d="M1.42,1.42V57.25H44.77V1.42ZM18.78,10H35.65v5H24.87v7.44h9.67v5H24.87v8.42H36.69v5H18.78ZM36.7,47.77h-26V9.84h6.09V42.72H36.7Z" transform="translate(-1.42 -1.42)" fill="#231f20"/><path d="M67,35.73h6.79v2.9H63.38V20H67Z" transform="translate(-1.42 -1.42)" fill="#231f20"/><path d="M87.46,30.47H81.22v5.26h7.34v2.9h-11V20h11v2.9H81.22v4.63h6.24Z" transform="translate(-1.42 -1.42)" fill="#231f20"/><path d="M105.7,33.88l.14.71h.08l.14-.67L109.16,20H113l-5.19,18.59H104L98.81,20h3.82Z" transform="translate(-1.42 -1.42)" fill="#231f20"/><path d="M126.35,30.47h-6.24v5.26h7.34v2.9h-11V20h11v2.9h-7.31v4.63h6.24Z" transform="translate(-1.42 -1.42)" fill="#231f20"/><path d="M144.3,38.63h-3.61L135,26.74l-.07,0V38.63H131.3V20h3.64l5.68,11.87.07,0V20h3.61Z" transform="translate(-1.42 -1.42)" fill="#231f20"/><path d="M159.67,22.94h-4.19V38.63h-3.62V22.94h-4.17V20h12Z" transform="translate(-1.42 -1.42)" fill="#231f20"/><path d="M175.78,20V32.69A6,6,0,0,1,174,37.28a7.24,7.24,0,0,1-9.13,0,6,6,0,0,1-1.74-4.59V20h3.63V32.69a3.71,3.71,0,0,0,.7,2.5,2.48,2.48,0,0,0,2,.81,2.56,2.56,0,0,0,2-.77,3.75,3.75,0,0,0,.69-2.54V20Z" transform="translate(-1.42 -1.42)" fill="#231f20"/><path d="M184,31.24v7.39h-3.62V20.06h6.06a6.08,6.08,0,0,1,4.31,1.45,5.2,5.2,0,0,1,1.56,4,4.39,4.39,0,0,1-2.55,4.19,3.54,3.54,0,0,1,2.06,1.61,5.66,5.66,0,0,1,.63,2.8v1.32a8.14,8.14,0,0,0,.18,1.64,2.24,2.24,0,0,0,.63,1.27v.27h-3.75a2.11,2.11,0,0,1-.57-1.33,16.51,16.51,0,0,1-.11-1.88V34.16a3.56,3.56,0,0,0-.57-2.16,1.9,1.9,0,0,0-1.63-.76Zm0-2.9h2.43a2,2,0,0,0,1.68-.68,2.84,2.84,0,0,0,.58-1.92,3.22,3.22,0,0,0-.58-2,2,2,0,0,0-1.67-.76H184Z" transform="translate(-1.42 -1.42)" fill="#231f20"/><path d="M207,30.47h-6.24v5.26h7.34v2.9h-11V20h11v2.9h-7.31v4.63H207Z" transform="translate(-1.42 -1.42)" fill="#231f20"/><path d="M220.22,33.78a2.46,2.46,0,0,0-.56-1.72,5.53,5.53,0,0,0-2-1.24,13.24,13.24,0,0,1-4.34-2.29,4.56,4.56,0,0,1-1.45-3.6,4.67,4.67,0,0,1,1.68-3.72,6.4,6.4,0,0,1,4.3-1.43,6,6,0,0,1,4.32,1.6,5.25,5.25,0,0,1,1.61,4l0,.07h-3.52a3.13,3.13,0,0,0-.64-2.06,2.46,2.46,0,0,0-3.49-.14,2.33,2.33,0,0,0-.61,1.66,1.93,1.93,0,0,0,.68,1.51,9.79,9.79,0,0,0,2.35,1.32,9.86,9.86,0,0,1,4,2.26,5.12,5.12,0,0,1,1.34,3.71,4.7,4.7,0,0,1-1.61,3.78A6.39,6.39,0,0,1,218,38.9a7.13,7.13,0,0,1-4.6-1.56,5.18,5.18,0,0,1-1.88-4.44l0-.08H215a3.48,3.48,0,0,0,.73,2.48,2.91,2.91,0,0,0,2.19.75,2.19,2.19,0,0,0,1.71-.61A2.38,2.38,0,0,0,220.22,33.78Z" transform="translate(-1.42 -1.42)" fill="#231f20"/></svg>